<?xml version="1.0" standalone="no"?>
<!DOCTYPE svg PUBLIC "-//W3C//DTD SVG 20010904//EN"
 "http://www.w3.org/TR/2001/REC-SVG-20010904/DTD/svg10.dtd">
<svg version="1.0" xmlns="http://www.w3.org/2000/svg"
 width="1440.000000pt" height="1440.000000pt" viewBox="0 0 1440.000000 1440.000000"
 preserveAspectRatio="xMidYMid meet">
<metadata>
Created by potrace 1.14, written by Peter Selinger 2001-2017
</metadata>
<g transform="translate(0.000000,1440.000000) scale(0.100000,-0.100000)"
fill="#000000" stroke="none">
<path d="M10 7220 l0 -7180 7195 0 7195 0 0 7180 0 7180 -7195 0 -7195 0 0
-7180z m3510 3475 c750 -79 1417 -445 1847 -1013 199 -262 305 -455 413 -752
75 -207 126 -422 151 -645 16 -142 16 -519 0 -660 -53 -468 -194 -866 -436
-1240 -195 -299 -460 -560 -790 -775 -162 -105 -557 -281 -687 -305 -21 -4
-42 -13 -48 -20 -22 -27 327 -104 505 -111 317 -12 651 65 898 208 37 21 71
37 75 34 4 -2 32 -55 62 -117 30 -62 128 -261 218 -443 113 -228 162 -336 158
-351 -10 -39 -105 -153 -187 -224 -226 -195 -457 -308 -744 -363 -106 -20
-149 -23 -365 -22 -227 1 -254 3 -365 27 -136 30 -295 90 -535 202 -397 185
-563 226 -900 226 -268 0 -406 -29 -612 -131 -98 -49 -228 -134 -228 -151 0
-32 -48 13 -187 179 -87 103 -208 247 -270 320 -62 73 -113 137 -113 143 0 18
110 136 190 203 174 147 393 270 615 346 65 22 120 41 122 43 2 2 -52 23 -119
47 -124 43 -143 51 -278 113 -243 111 -562 338 -749 533 -267 279 -450 583
-599 994 -174 478 -199 1180 -61 1695 130 484 354 877 698 1223 289 292 560
465 986 632 377 148 864 204 1335 155z m4268 -150 c7 -38 16 -106 21 -150 8
-69 183 -1133 256 -1550 13 -77 28 -167 33 -200 24 -153 233 -1402 238 -1415
5 -13 6 -13 13 0 9 17 85 294 96 350 7 37 124 479 175 660 16 58 57 206 90
330 90 334 129 475 155 570 13 47 35 130 50 185 28 105 64 237 114 420 17 61
47 171 66 245 20 74 47 173 60 220 13 47 36 130 50 185 15 55 35 127 44 160
l17 60 515 0 514 0 27 -100 c14 -55 33 -131 42 -170 9 -38 29 -117 45 -175 16
-58 43 -154 59 -215 17 -60 80 -292 140 -515 61 -223 199 -731 307 -1130 109
-399 218 -804 245 -899 26 -96 51 -176 57 -178 9 -3 26 94 78 437 15 106 25
166 70 430 31 183 112 667 130 785 8 50 22 131 30 180 9 50 27 160 40 245 14
85 31 189 39 230 8 41 17 95 20 120 4 25 17 108 31 185 13 77 40 241 60 365
20 124 44 266 54 315 l17 90 804 3 c571 1 806 -1 810 -9 8 -12 -11 -111 -34
-179 -8 -25 -38 -142 -66 -260 -28 -118 -57 -242 -65 -275 -8 -33 -46 -195
-85 -360 -39 -165 -80 -336 -90 -380 -44 -182 -73 -305 -140 -590 -39 -165
-80 -336 -90 -380 -11 -44 -65 -271 -120 -505 -55 -234 -107 -452 -115 -485
-8 -33 -46 -195 -85 -360 -39 -165 -79 -336 -90 -380 -23 -95 -47 -197 -135
-570 -107 -453 -123 -518 -130 -552 -3 -18 -10 -35 -14 -37 -3 -2 -382 -6
-841 -7 l-835 -2 -57 239 c-32 131 -71 295 -87 364 -41 170 -94 393 -126 525
-14 61 -37 155 -50 210 -108 448 -227 955 -240 1024 -21 111 -111 480 -119
488 -11 11 -17 -3 -42 -108 -14 -57 -166 -693 -338 -1412 -172 -720 -317
-1312 -322 -1317 -5 -5 -385 -10 -844 -11 l-835 -3 -11 40 c-7 21 -37 147 -68
279 -65 282 -165 707 -241 1030 -101 426 -186 790 -205 870 -50 214 -94 399
-115 490 -13 55 -40 170 -60 255 -20 85 -47 200 -60 255 -13 55 -49 208 -80
340 -31 132 -85 362 -120 510 -35 149 -91 389 -126 535 -34 146 -85 364 -114
485 -29 121 -50 226 -48 233 4 10 172 12 811 10 l807 -3 13 -70z"/>
<path d="M2990 9389 c-271 -44 -471 -144 -669 -334 -223 -213 -357 -472 -417
-805 -13 -69 -18 -149 -18 -295 0 -146 5 -226 18 -295 72 -397 263 -717 545
-915 310 -218 695 -286 1064 -190 442 115 778 467 911 955 94 344 70 755 -61
1070 -220 526 -652 824 -1187 819 -72 -1 -156 -5 -186 -10z"/>
</g>
</svg>
